<svg width="17" height="9" viewBox="0 0 17 9" fill="none" xmlns="http://www.w3.org/2000/svg">
<path fill-rule="evenodd" clip-rule="evenodd" d="M16.0454 0.517209C16.1007 0.572364 16.1446 0.637885 16.1745 0.71002C16.2044 0.782154 16.2198 0.859486 16.2198 0.937585C16.2198 1.01568 16.2044 1.09301 16.1745 1.16515C16.1446 1.23728 16.1007 1.30281 16.0454 1.35796L8.92041 8.48296C8.86526 8.53825 8.79974 8.58212 8.7276 8.61206C8.65547 8.64199 8.57814 8.6574 8.50004 8.6574C8.42194 8.6574 8.34461 8.64199 8.27247 8.61206C8.20034 8.58212 8.13482 8.53825 8.07966 8.48296L0.954662 1.35796C0.843172 1.24647 0.780538 1.09526 0.780538 0.937585C0.780538 0.779914 0.843172 0.6287 0.954662 0.51721C1.06615 0.405719 1.21737 0.343084 1.37504 0.343084C1.53271 0.343084 1.68392 0.405719 1.79541 0.51721L8.50004 7.22302L15.2047 0.517209C15.2598 0.461916 15.3253 0.418046 15.3975 0.388113C15.4696 0.358181 15.5469 0.342773 15.625 0.342773C15.7031 0.342773 15.7805 0.358181 15.8526 0.388113C15.9247 0.418046 15.9903 0.461916 16.0454 0.517209Z" fill="black"/>
</svg>
