<svg width="31" height="31" viewBox="0 0 31 31" fill="none" xmlns="http://www.w3.org/2000/svg">
<path d="M27.0625 30.5312H26.866C4.14565 29.2247 0.919714 10.0541 0.468777 4.20344C0.432442 3.74855 0.486223 3.29095 0.627038 2.85688C0.767854 2.42281 0.992936 2.02079 1.28939 1.67385C1.58584 1.32692 1.94784 1.04189 2.35463 0.835096C2.76143 0.628302 3.20503 0.50381 3.66003 0.468751H10.031C10.4941 0.468303 10.9467 0.606934 11.3302 0.866688C11.7136 1.12644 12.0102 1.49535 12.1816 1.92563L13.9391 6.25C14.1083 6.67035 14.1503 7.13115 14.0599 7.57517C13.9694 8.01918 13.7505 8.42684 13.4303 8.7475L10.9675 11.2334C11.3522 13.4196 12.3992 15.4349 13.9667 17.0065C15.5343 18.5782 17.5467 19.6305 19.7319 20.0209L22.241 17.535C22.5664 17.2184 22.9779 17.0046 23.4241 16.9203C23.8703 16.836 24.3315 16.8849 24.75 17.0609L29.1091 18.8069C29.5329 18.9836 29.8944 19.2826 30.1477 19.6656C30.401 20.0486 30.5345 20.4983 30.5313 20.9575V27.0625C30.5313 27.9825 30.1658 28.8648 29.5153 29.5153C28.8648 30.1658 27.9825 30.5312 27.0625 30.5312ZM3.93753 2.78125C3.63087 2.78125 3.33677 2.90307 3.11993 3.11991C2.9031 3.33675 2.78128 3.63084 2.78128 3.9375V4.03C3.31315 10.875 6.72409 27.0625 26.9932 28.2188C27.1451 28.2281 27.2973 28.2074 27.4412 28.1579C27.5851 28.1083 27.7178 28.0308 27.8316 27.9298C27.9455 27.8288 28.0383 27.7064 28.1048 27.5694C28.1712 27.4325 28.2099 27.2838 28.2188 27.1319V20.9575L23.8597 19.2116L20.5413 22.5069L19.9863 22.4375C9.9269 21.1772 8.56253 11.1178 8.56253 11.0138L8.49315 10.4588L11.7769 7.14031L10.0425 2.78125H3.93753Z" fill="white"/>
</svg>
